<mxfile host="app.diagrams.net" agent="Mozilla/5.0 (Windows NT 10.0; Win64; x64) AppleWebKit/537.36 (KHTML, like Gecko) Chrome/130.0.0.0 Safari/537.36" version="24.8.3">
  <diagram name="Page-1" id="58cdce13-f638-feb5-8d6f-7d28b1aa9fa0">
    <mxGraphModel dx="1434" dy="2392" grid="1" gridSize="10" guides="1" tooltips="1" connect="1" arrows="1" fold="1" page="1" pageScale="1" pageWidth="1169" pageHeight="827" background="none" math="0" shadow="1">
      <root>
        <mxCell id="0" />
        <mxCell id="1" parent="0" />
        <mxCell id="S6EXefoxJFscq843MgCL-1" value="" style="rounded=0;whiteSpace=wrap;html=1;" parent="1" vertex="1">
          <mxGeometry x="1046" y="-878" width="430" height="210" as="geometry" />
        </mxCell>
        <mxCell id="UNlBqkgNHikucl9kDQkN-2" style="edgeStyle=orthogonalEdgeStyle;rounded=0;orthogonalLoop=1;jettySize=auto;html=1;entryX=0;entryY=0.5;entryDx=0;entryDy=0;exitX=0.5;exitY=0;exitDx=0;exitDy=0;dashed=1;strokeWidth=2;" parent="1" source="qMRYF5KEjTczxaaKGpgz-15" target="qMRYF5KEjTczxaaKGpgz-23" edge="1">
          <mxGeometry relative="1" as="geometry">
            <mxPoint x="560" y="-919" as="sourcePoint" />
            <mxPoint x="659" y="-459" as="targetPoint" />
          </mxGeometry>
        </mxCell>
        <mxCell id="UNlBqkgNHikucl9kDQkN-3" style="edgeStyle=orthogonalEdgeStyle;rounded=0;orthogonalLoop=1;jettySize=auto;html=1;exitX=1;exitY=0.5;exitDx=0;exitDy=0;strokeWidth=2;dashed=1;" parent="1" source="qMRYF5KEjTczxaaKGpgz-18" target="qMRYF5KEjTczxaaKGpgz-11" edge="1">
          <mxGeometry relative="1" as="geometry" />
        </mxCell>
        <mxCell id="qMRYF5KEjTczxaaKGpgz-64" value="" style="edgeStyle=orthogonalEdgeStyle;rounded=0;orthogonalLoop=1;jettySize=auto;html=1;strokeWidth=2;entryX=0.5;entryY=1;entryDx=0;entryDy=0;exitX=0.5;exitY=0;exitDx=0;exitDy=0;dashed=1;" parent="1" source="qMRYF5KEjTczxaaKGpgz-61" target="l9l8OA2wuGnE-w_3Maxh-19" edge="1">
          <mxGeometry relative="1" as="geometry">
            <Array as="points">
              <mxPoint x="1150" y="-150" />
              <mxPoint x="950" y="-150" />
              <mxPoint x="950" y="-230" />
              <mxPoint x="178" y="-230" />
            </Array>
            <mxPoint x="1005" y="-239" as="sourcePoint" />
            <mxPoint x="99" y="-700" as="targetPoint" />
          </mxGeometry>
        </mxCell>
        <mxCell id="qMRYF5KEjTczxaaKGpgz-5" style="edgeStyle=orthogonalEdgeStyle;rounded=0;orthogonalLoop=1;jettySize=auto;html=1;exitX=1;exitY=0.5;exitDx=0;exitDy=0;" parent="1" source="qMRYF5KEjTczxaaKGpgz-1" target="qMRYF5KEjTczxaaKGpgz-3" edge="1">
          <mxGeometry relative="1" as="geometry">
            <mxPoint x="150" y="-929" as="targetPoint" />
          </mxGeometry>
        </mxCell>
        <mxCell id="qMRYF5KEjTczxaaKGpgz-1" value="" style="ellipse;html=1;shape=startState;fillColor=#000000;strokeColor=default;" parent="1" vertex="1">
          <mxGeometry x="30" y="-944" width="30" height="30" as="geometry" />
        </mxCell>
        <mxCell id="qMRYF5KEjTczxaaKGpgz-9" style="edgeStyle=orthogonalEdgeStyle;rounded=0;orthogonalLoop=1;jettySize=auto;html=1;exitX=1;exitY=0.5;exitDx=0;exitDy=0;entryX=0;entryY=0.5;entryDx=0;entryDy=0;" parent="1" source="qMRYF5KEjTczxaaKGpgz-3" target="qMRYF5KEjTczxaaKGpgz-7" edge="1">
          <mxGeometry relative="1" as="geometry" />
        </mxCell>
        <mxCell id="qMRYF5KEjTczxaaKGpgz-3" value="Opened Ticket for Host Discovery" style="rounded=1;whiteSpace=wrap;html=1;arcSize=40;fontColor=#000000;fillColor=#ffffc0;strokeColor=default;" parent="1" vertex="1">
          <mxGeometry x="120" y="-949" width="120" height="40" as="geometry" />
        </mxCell>
        <mxCell id="qMRYF5KEjTczxaaKGpgz-7" value="Insert Network" style="rounded=1;whiteSpace=wrap;html=1;arcSize=40;fontColor=#000000;fillColor=#ffffc0;strokeColor=#000000;" parent="1" vertex="1">
          <mxGeometry x="280" y="-949" width="120" height="40" as="geometry" />
        </mxCell>
        <mxCell id="qMRYF5KEjTczxaaKGpgz-10" value="SOAR Server" style="shape=umlFrame;whiteSpace=wrap;html=1;pointerEvents=0;strokeWidth=2;" parent="1" vertex="1">
          <mxGeometry x="10" y="-1064" width="1620" height="474" as="geometry" />
        </mxCell>
        <mxCell id="qMRYF5KEjTczxaaKGpgz-16" value="" style="edgeStyle=orthogonalEdgeStyle;rounded=0;orthogonalLoop=1;jettySize=auto;html=1;" parent="1" source="qMRYF5KEjTczxaaKGpgz-11" target="qMRYF5KEjTczxaaKGpgz-15" edge="1">
          <mxGeometry relative="1" as="geometry" />
        </mxCell>
        <mxCell id="qMRYF5KEjTczxaaKGpgz-11" value="ARP scan" style="rounded=1;whiteSpace=wrap;html=1;arcSize=40;fontColor=#000000;fillColor=#ffffc0;strokeColor=default;" parent="1" vertex="1">
          <mxGeometry x="595" y="-469" width="120" height="40" as="geometry" />
        </mxCell>
        <mxCell id="qMRYF5KEjTczxaaKGpgz-12" value="Container nmap" style="shape=umlFrame;whiteSpace=wrap;html=1;pointerEvents=0;" parent="1" vertex="1">
          <mxGeometry x="540" y="-520" width="351" height="120" as="geometry" />
        </mxCell>
        <mxCell id="qMRYF5KEjTczxaaKGpgz-15" value="Return result" style="rounded=1;whiteSpace=wrap;html=1;arcSize=40;fontColor=#000000;fillColor=#ffffc0;strokeColor=default;" parent="1" vertex="1">
          <mxGeometry x="758" y="-469" width="120" height="40" as="geometry" />
        </mxCell>
        <mxCell id="qMRYF5KEjTczxaaKGpgz-18" value="Device Discovery Request" style="rounded=1;whiteSpace=wrap;html=1;arcSize=40;fontColor=#000000;fillColor=#ffffc0;strokeColor=#000000;" parent="1" vertex="1">
          <mxGeometry x="440" y="-949" width="120" height="40" as="geometry" />
        </mxCell>
        <mxCell id="qMRYF5KEjTczxaaKGpgz-28" style="edgeStyle=orthogonalEdgeStyle;rounded=0;orthogonalLoop=1;jettySize=auto;html=1;" parent="1" source="qMRYF5KEjTczxaaKGpgz-23" target="qMRYF5KEjTczxaaKGpgz-26" edge="1">
          <mxGeometry relative="1" as="geometry" />
        </mxCell>
        <mxCell id="qMRYF5KEjTczxaaKGpgz-29" value="Yes" style="edgeLabel;html=1;align=center;verticalAlign=middle;resizable=0;points=[];" parent="qMRYF5KEjTczxaaKGpgz-28" vertex="1" connectable="0">
          <mxGeometry x="-0.2644" y="-4" relative="1" as="geometry">
            <mxPoint y="5" as="offset" />
          </mxGeometry>
        </mxCell>
        <mxCell id="qMRYF5KEjTczxaaKGpgz-23" value="Hosts&lt;br&gt;found?" style="rhombus;whiteSpace=wrap;html=1;fontColor=#000000;fillColor=#ffffc0;strokeColor=default;" parent="1" vertex="1">
          <mxGeometry x="920" y="-952" width="80" height="46" as="geometry" />
        </mxCell>
        <mxCell id="qMRYF5KEjTczxaaKGpgz-35" style="edgeStyle=orthogonalEdgeStyle;rounded=0;orthogonalLoop=1;jettySize=auto;html=1;" parent="1" source="qMRYF5KEjTczxaaKGpgz-26" target="qMRYF5KEjTczxaaKGpgz-32" edge="1">
          <mxGeometry relative="1" as="geometry" />
        </mxCell>
        <mxCell id="qMRYF5KEjTczxaaKGpgz-26" value="Check Host Status" style="rounded=1;whiteSpace=wrap;html=1;arcSize=40;fontColor=#000000;fillColor=#ffffc0;strokeColor=default;" parent="1" vertex="1">
          <mxGeometry x="1041" y="-949" width="120" height="40" as="geometry" />
        </mxCell>
        <mxCell id="qMRYF5KEjTczxaaKGpgz-31" style="edgeStyle=orthogonalEdgeStyle;rounded=0;orthogonalLoop=1;jettySize=auto;html=1;entryX=0.5;entryY=0;entryDx=0;entryDy=0;shape=flexArrow;startArrow=none;endArrow=block;endFill=0;startFill=0;" parent="1" source="qMRYF5KEjTczxaaKGpgz-30" target="qMRYF5KEjTczxaaKGpgz-26" edge="1">
          <mxGeometry relative="1" as="geometry" />
        </mxCell>
        <mxCell id="qMRYF5KEjTczxaaKGpgz-30" value="DB" style="shape=datastore;whiteSpace=wrap;html=1;" parent="1" vertex="1">
          <mxGeometry x="1071" y="-1150" width="60" height="60" as="geometry" />
        </mxCell>
        <mxCell id="qMRYF5KEjTczxaaKGpgz-36" style="edgeStyle=orthogonalEdgeStyle;rounded=0;orthogonalLoop=1;jettySize=auto;html=1;entryX=0.5;entryY=0;entryDx=0;entryDy=0;" parent="1" source="qMRYF5KEjTczxaaKGpgz-32" target="qMRYF5KEjTczxaaKGpgz-18" edge="1">
          <mxGeometry relative="1" as="geometry">
            <Array as="points">
              <mxPoint x="1241" y="-1034" />
              <mxPoint x="500" y="-1034" />
            </Array>
          </mxGeometry>
        </mxCell>
        <mxCell id="qMRYF5KEjTczxaaKGpgz-37" value="No" style="edgeLabel;html=1;align=center;verticalAlign=middle;resizable=0;points=[];" parent="qMRYF5KEjTczxaaKGpgz-36" vertex="1" connectable="0">
          <mxGeometry x="-0.0047" y="2" relative="1" as="geometry">
            <mxPoint x="381" y="42" as="offset" />
          </mxGeometry>
        </mxCell>
        <mxCell id="qMRYF5KEjTczxaaKGpgz-41" style="edgeStyle=orthogonalEdgeStyle;rounded=0;orthogonalLoop=1;jettySize=auto;html=1;entryX=0;entryY=0.5;entryDx=0;entryDy=0;" parent="1" source="qMRYF5KEjTczxaaKGpgz-32" target="qMRYF5KEjTczxaaKGpgz-39" edge="1">
          <mxGeometry relative="1" as="geometry" />
        </mxCell>
        <mxCell id="vOy61LkyThJas-C-DZS7-1" value="Yes" style="edgeLabel;html=1;align=center;verticalAlign=middle;resizable=0;points=[];" parent="qMRYF5KEjTczxaaKGpgz-41" vertex="1" connectable="0">
          <mxGeometry x="-0.2195" y="-1" relative="1" as="geometry">
            <mxPoint y="10" as="offset" />
          </mxGeometry>
        </mxCell>
        <mxCell id="qMRYF5KEjTczxaaKGpgz-32" value="Run&lt;br&gt;Scan?" style="rhombus;whiteSpace=wrap;html=1;fontColor=#000000;fillColor=#ffffc0;strokeColor=default;verticalAlign=middle;" parent="1" vertex="1">
          <mxGeometry x="1201" y="-954" width="80" height="50" as="geometry" />
        </mxCell>
        <mxCell id="qMRYF5KEjTczxaaKGpgz-43" value="" style="edgeStyle=orthogonalEdgeStyle;rounded=0;orthogonalLoop=1;jettySize=auto;html=1;" parent="1" source="qMRYF5KEjTczxaaKGpgz-39" target="qMRYF5KEjTczxaaKGpgz-42" edge="1">
          <mxGeometry relative="1" as="geometry" />
        </mxCell>
        <mxCell id="qMRYF5KEjTczxaaKGpgz-39" value="Create Vulnerability Scanning Ticket" style="rounded=1;whiteSpace=wrap;html=1;arcSize=40;fontColor=#000000;fillColor=#ffffc0;strokeColor=default;" parent="1" vertex="1">
          <mxGeometry x="1320" y="-949" width="120" height="40" as="geometry" />
        </mxCell>
        <mxCell id="qMRYF5KEjTczxaaKGpgz-52" value="" style="edgeStyle=orthogonalEdgeStyle;rounded=0;orthogonalLoop=1;jettySize=auto;html=1;strokeWidth=2;dashed=1;" parent="1" source="qMRYF5KEjTczxaaKGpgz-42" target="qMRYF5KEjTczxaaKGpgz-51" edge="1">
          <mxGeometry relative="1" as="geometry">
            <Array as="points">
              <mxPoint x="1540" y="-30" />
              <mxPoint x="130" y="-30" />
            </Array>
          </mxGeometry>
        </mxCell>
        <mxCell id="qMRYF5KEjTczxaaKGpgz-42" value="Scan Device" style="rounded=1;whiteSpace=wrap;html=1;arcSize=40;fontColor=#000000;fillColor=#ffffc0;strokeColor=default;" parent="1" vertex="1">
          <mxGeometry x="1480" y="-949" width="120" height="40" as="geometry" />
        </mxCell>
        <mxCell id="qMRYF5KEjTczxaaKGpgz-55" value="" style="edgeStyle=orthogonalEdgeStyle;rounded=0;orthogonalLoop=1;jettySize=auto;html=1;" parent="1" source="qMRYF5KEjTczxaaKGpgz-51" target="qMRYF5KEjTczxaaKGpgz-54" edge="1">
          <mxGeometry relative="1" as="geometry" />
        </mxCell>
        <mxCell id="qMRYF5KEjTczxaaKGpgz-51" value="Request scanning to GVM" style="rounded=1;whiteSpace=wrap;html=1;arcSize=40;fontColor=#000000;fillColor=#ffffc0;strokeColor=default;" parent="1" vertex="1">
          <mxGeometry x="71" y="-113" width="120" height="40" as="geometry" />
        </mxCell>
        <mxCell id="qMRYF5KEjTczxaaKGpgz-58" value="" style="edgeStyle=orthogonalEdgeStyle;rounded=0;orthogonalLoop=1;jettySize=auto;html=1;" parent="1" source="qMRYF5KEjTczxaaKGpgz-54" target="qMRYF5KEjTczxaaKGpgz-57" edge="1">
          <mxGeometry relative="1" as="geometry" />
        </mxCell>
        <mxCell id="qMRYF5KEjTczxaaKGpgz-54" value="GVM Active Probing" style="rounded=1;whiteSpace=wrap;html=1;arcSize=40;fontColor=#000000;fillColor=#ffffc0;strokeColor=default;" parent="1" vertex="1">
          <mxGeometry x="284" y="-113" width="120" height="40" as="geometry" />
        </mxCell>
        <mxCell id="qMRYF5KEjTczxaaKGpgz-53" value="Security Tools Server" style="shape=umlFrame;whiteSpace=wrap;html=1;pointerEvents=0;width=90;height=30;strokeWidth=2;" parent="1" vertex="1">
          <mxGeometry x="10" y="-550" width="1620" height="540" as="geometry" />
        </mxCell>
        <mxCell id="qMRYF5KEjTczxaaKGpgz-56" value="GVM" style="shape=umlFrame;whiteSpace=wrap;html=1;pointerEvents=0;" parent="1" vertex="1">
          <mxGeometry x="230" y="-153" width="430" height="99" as="geometry" />
        </mxCell>
        <mxCell id="qMRYF5KEjTczxaaKGpgz-60" value="" style="edgeStyle=orthogonalEdgeStyle;rounded=0;orthogonalLoop=1;jettySize=auto;html=1;entryX=0;entryY=0.5;entryDx=0;entryDy=0;" parent="1" source="qMRYF5KEjTczxaaKGpgz-57" target="S6EXefoxJFscq843MgCL-16" edge="1">
          <mxGeometry relative="1" as="geometry">
            <mxPoint x="690" y="-93" as="targetPoint" />
          </mxGeometry>
        </mxCell>
        <mxCell id="qMRYF5KEjTczxaaKGpgz-57" value="XML Report Generation" style="rounded=1;whiteSpace=wrap;html=1;arcSize=40;fontColor=#000000;fillColor=#ffffc0;strokeColor=default;" parent="1" vertex="1">
          <mxGeometry x="484" y="-113" width="120" height="40" as="geometry" />
        </mxCell>
        <mxCell id="qMRYF5KEjTczxaaKGpgz-62" value="" style="edgeStyle=orthogonalEdgeStyle;rounded=0;orthogonalLoop=1;jettySize=auto;html=1;" parent="1" source="qMRYF5KEjTczxaaKGpgz-59" target="qMRYF5KEjTczxaaKGpgz-61" edge="1">
          <mxGeometry relative="1" as="geometry" />
        </mxCell>
        <mxCell id="qMRYF5KEjTczxaaKGpgz-59" value="Convert Report to JSON" style="rounded=1;whiteSpace=wrap;html=1;arcSize=40;fontColor=#000000;fillColor=#ffffc0;strokeColor=default;" parent="1" vertex="1">
          <mxGeometry x="900" y="-113" width="120" height="40" as="geometry" />
        </mxCell>
        <mxCell id="l9l8OA2wuGnE-w_3Maxh-3" style="edgeStyle=orthogonalEdgeStyle;rounded=0;orthogonalLoop=1;jettySize=auto;html=1;exitX=1;exitY=0.5;exitDx=0;exitDy=0;entryX=0;entryY=0.5;entryDx=0;entryDy=0;startArrow=none;startFill=0;shape=flexArrow;" parent="1" source="qMRYF5KEjTczxaaKGpgz-61" target="l9l8OA2wuGnE-w_3Maxh-2" edge="1">
          <mxGeometry relative="1" as="geometry" />
        </mxCell>
        <mxCell id="qMRYF5KEjTczxaaKGpgz-61" value="Save Report" style="rounded=1;whiteSpace=wrap;html=1;arcSize=40;fontColor=#000000;fillColor=#ffffc0;strokeColor=default;" parent="1" vertex="1">
          <mxGeometry x="1090" y="-113" width="120" height="40" as="geometry" />
        </mxCell>
        <mxCell id="l9l8OA2wuGnE-w_3Maxh-5" value="" style="edgeStyle=orthogonalEdgeStyle;rounded=0;orthogonalLoop=1;jettySize=auto;html=1;" parent="1" source="qMRYF5KEjTczxaaKGpgz-63" target="l9l8OA2wuGnE-w_3Maxh-4" edge="1">
          <mxGeometry relative="1" as="geometry" />
        </mxCell>
        <mxCell id="qMRYF5KEjTczxaaKGpgz-63" value="Get Report" style="rounded=1;whiteSpace=wrap;html=1;arcSize=40;fontColor=#000000;fillColor=#ffffc0;strokeColor=default;" parent="1" vertex="1">
          <mxGeometry x="308" y="-780" width="120" height="40" as="geometry" />
        </mxCell>
        <mxCell id="l9l8OA2wuGnE-w_3Maxh-2" value="DB" style="shape=datastore;whiteSpace=wrap;html=1;" parent="1" vertex="1">
          <mxGeometry x="1290" y="-123" width="60" height="60" as="geometry" />
        </mxCell>
        <mxCell id="l9l8OA2wuGnE-w_3Maxh-4" value="Report Processing" style="rounded=1;whiteSpace=wrap;html=1;arcSize=40;fontColor=#000000;fillColor=#ffffc0;strokeColor=default;" parent="1" vertex="1">
          <mxGeometry x="492" y="-780" width="120" height="40" as="geometry" />
        </mxCell>
        <mxCell id="l9l8OA2wuGnE-w_3Maxh-9" value="" style="edgeStyle=orthogonalEdgeStyle;rounded=0;orthogonalLoop=1;jettySize=auto;html=1;exitX=1;exitY=0.5;exitDx=0;exitDy=0;" parent="1" source="l9l8OA2wuGnE-w_3Maxh-4" target="l9l8OA2wuGnE-w_3Maxh-8" edge="1">
          <mxGeometry relative="1" as="geometry">
            <mxPoint x="640" y="-760" as="sourcePoint" />
          </mxGeometry>
        </mxCell>
        <mxCell id="l9l8OA2wuGnE-w_3Maxh-11" value="" style="edgeStyle=orthogonalEdgeStyle;rounded=0;orthogonalLoop=1;jettySize=auto;html=1;entryX=0;entryY=0.5;entryDx=0;entryDy=0;" parent="1" source="l9l8OA2wuGnE-w_3Maxh-8" target="l9l8OA2wuGnE-w_3Maxh-12" edge="1">
          <mxGeometry relative="1" as="geometry">
            <mxPoint x="950" y="-724" as="targetPoint" />
          </mxGeometry>
        </mxCell>
        <mxCell id="l9l8OA2wuGnE-w_3Maxh-8" value="Calculate Severity Score" style="rounded=1;whiteSpace=wrap;html=1;arcSize=40;fontColor=#000000;fillColor=#ffffc0;strokeColor=default;" parent="1" vertex="1">
          <mxGeometry x="680" y="-780" width="120" height="40" as="geometry" />
        </mxCell>
        <mxCell id="l9l8OA2wuGnE-w_3Maxh-14" style="edgeStyle=orthogonalEdgeStyle;rounded=0;orthogonalLoop=1;jettySize=auto;html=1;exitX=1;exitY=0.5;exitDx=0;exitDy=0;" parent="1" source="l9l8OA2wuGnE-w_3Maxh-12" target="l9l8OA2wuGnE-w_3Maxh-13" edge="1">
          <mxGeometry relative="1" as="geometry" />
        </mxCell>
        <mxCell id="l9l8OA2wuGnE-w_3Maxh-15" value="Yes" style="edgeLabel;html=1;align=center;verticalAlign=middle;resizable=0;points=[];" parent="l9l8OA2wuGnE-w_3Maxh-14" vertex="1" connectable="0">
          <mxGeometry x="-0.0933" y="1" relative="1" as="geometry">
            <mxPoint x="-83" y="10" as="offset" />
          </mxGeometry>
        </mxCell>
        <mxCell id="l9l8OA2wuGnE-w_3Maxh-17" style="edgeStyle=orthogonalEdgeStyle;rounded=0;orthogonalLoop=1;jettySize=auto;html=1;exitX=0.5;exitY=1;exitDx=0;exitDy=0;entryX=0.5;entryY=0;entryDx=0;entryDy=0;" parent="1" source="l9l8OA2wuGnE-w_3Maxh-12" target="S6EXefoxJFscq843MgCL-2" edge="1">
          <mxGeometry relative="1" as="geometry">
            <mxPoint x="1025" y="-638" as="targetPoint" />
          </mxGeometry>
        </mxCell>
        <mxCell id="l9l8OA2wuGnE-w_3Maxh-18" value="No" style="edgeLabel;html=1;align=center;verticalAlign=middle;resizable=0;points=[];" parent="l9l8OA2wuGnE-w_3Maxh-17" vertex="1" connectable="0">
          <mxGeometry x="-0.35" relative="1" as="geometry">
            <mxPoint x="11" as="offset" />
          </mxGeometry>
        </mxCell>
        <mxCell id="l9l8OA2wuGnE-w_3Maxh-12" value="Severity &amp;gt; 5" style="rhombus;whiteSpace=wrap;html=1;fontColor=#000000;fillColor=#ffffc0;strokeColor=default;" parent="1" vertex="1">
          <mxGeometry x="863" y="-786" width="80" height="52" as="geometry" />
        </mxCell>
        <mxCell id="l9l8OA2wuGnE-w_3Maxh-21" value="" style="edgeStyle=orthogonalEdgeStyle;rounded=0;orthogonalLoop=1;jettySize=auto;html=1;" parent="1" source="l9l8OA2wuGnE-w_3Maxh-13" target="l9l8OA2wuGnE-w_3Maxh-20" edge="1">
          <mxGeometry relative="1" as="geometry" />
        </mxCell>
        <mxCell id="l9l8OA2wuGnE-w_3Maxh-13" value="Change host to safe VLAN" style="rounded=1;whiteSpace=wrap;html=1;arcSize=40;fontColor=#000000;fillColor=#ffffc0;strokeColor=default;" parent="1" vertex="1">
          <mxGeometry x="1106" y="-831" width="120" height="40" as="geometry" />
        </mxCell>
        <mxCell id="l9l8OA2wuGnE-w_3Maxh-19" value="Create Assessment Ticket" style="rounded=1;whiteSpace=wrap;html=1;arcSize=40;fontColor=#000000;fillColor=#ffffc0;strokeColor=default;" parent="1" vertex="1">
          <mxGeometry x="118" y="-780" width="120" height="40" as="geometry" />
        </mxCell>
        <mxCell id="l9l8OA2wuGnE-w_3Maxh-23" value="" style="edgeStyle=orthogonalEdgeStyle;rounded=0;orthogonalLoop=1;jettySize=auto;html=1;dashed=1;strokeWidth=2;" parent="1" source="l9l8OA2wuGnE-w_3Maxh-20" target="l9l8OA2wuGnE-w_3Maxh-22" edge="1">
          <mxGeometry relative="1" as="geometry">
            <Array as="points">
              <mxPoint x="1380" y="-720" />
              <mxPoint x="1190" y="-720" />
            </Array>
          </mxGeometry>
        </mxCell>
        <mxCell id="l9l8OA2wuGnE-w_3Maxh-20" value="Request SDN Controller" style="rounded=1;whiteSpace=wrap;html=1;arcSize=40;fontColor=#000000;fillColor=#ffffc0;strokeColor=default;" parent="1" vertex="1">
          <mxGeometry x="1320" y="-831" width="120" height="40" as="geometry" />
        </mxCell>
        <mxCell id="l9l8OA2wuGnE-w_3Maxh-26" value="" style="edgeStyle=orthogonalEdgeStyle;rounded=0;orthogonalLoop=1;jettySize=auto;html=1;" parent="1" source="l9l8OA2wuGnE-w_3Maxh-22" target="l9l8OA2wuGnE-w_3Maxh-25" edge="1">
          <mxGeometry relative="1" as="geometry" />
        </mxCell>
        <mxCell id="l9l8OA2wuGnE-w_3Maxh-22" value="Change VLAN for given interface" style="rounded=1;whiteSpace=wrap;html=1;arcSize=40;fontColor=#000000;fillColor=#ffffc0;strokeColor=default;" parent="1" vertex="1">
          <mxGeometry x="1131" y="-420" width="120" height="40" as="geometry" />
        </mxCell>
        <mxCell id="l9l8OA2wuGnE-w_3Maxh-24" value="SDN Controller" style="shape=umlFrame;whiteSpace=wrap;html=1;pointerEvents=0;width=70;height=29;" parent="1" vertex="1">
          <mxGeometry x="1070" y="-480" width="420" height="140" as="geometry" />
        </mxCell>
        <mxCell id="l9l8OA2wuGnE-w_3Maxh-28" value="" style="edgeStyle=orthogonalEdgeStyle;rounded=0;orthogonalLoop=1;jettySize=auto;html=1;exitX=0.5;exitY=1;exitDx=0;exitDy=0;" parent="1" source="l9l8OA2wuGnE-w_3Maxh-25" target="l9l8OA2wuGnE-w_3Maxh-27" edge="1">
          <mxGeometry relative="1" as="geometry">
            <Array as="points">
              <mxPoint x="1388" y="-240" />
            </Array>
          </mxGeometry>
        </mxCell>
        <mxCell id="l9l8OA2wuGnE-w_3Maxh-25" value="Install flow rule on Switch" style="rounded=1;whiteSpace=wrap;html=1;arcSize=40;fontColor=#000000;fillColor=#ffffc0;strokeColor=default;" parent="1" vertex="1">
          <mxGeometry x="1328" y="-420" width="120" height="40" as="geometry" />
        </mxCell>
        <mxCell id="l9l8OA2wuGnE-w_3Maxh-31" value="" style="edgeStyle=orthogonalEdgeStyle;rounded=0;orthogonalLoop=1;jettySize=auto;html=1;" parent="1" source="l9l8OA2wuGnE-w_3Maxh-27" target="l9l8OA2wuGnE-w_3Maxh-30" edge="1">
          <mxGeometry relative="1" as="geometry" />
        </mxCell>
        <mxCell id="l9l8OA2wuGnE-w_3Maxh-27" value="Install flow rule on Switch" style="rounded=1;whiteSpace=wrap;html=1;arcSize=40;fontColor=#000000;fillColor=#ffffc0;strokeColor=default;" parent="1" vertex="1">
          <mxGeometry x="1315.5" y="-260" width="120" height="40" as="geometry" />
        </mxCell>
        <mxCell id="l9l8OA2wuGnE-w_3Maxh-29" value="SDN Switch" style="shape=umlFrame;whiteSpace=wrap;html=1;pointerEvents=0;" parent="1" vertex="1">
          <mxGeometry x="1257.5" y="-300" width="232" height="100" as="geometry" />
        </mxCell>
        <mxCell id="l9l8OA2wuGnE-w_3Maxh-33" value="" style="edgeStyle=orthogonalEdgeStyle;rounded=0;orthogonalLoop=1;jettySize=auto;html=1;" parent="1" source="l9l8OA2wuGnE-w_3Maxh-30" target="l9l8OA2wuGnE-w_3Maxh-32" edge="1">
          <mxGeometry relative="1" as="geometry" />
        </mxCell>
        <mxCell id="l9l8OA2wuGnE-w_3Maxh-30" value="Device safe" style="rounded=1;whiteSpace=wrap;html=1;arcSize=40;fontColor=#000000;fillColor=#ffffc0;strokeColor=default;" parent="1" vertex="1">
          <mxGeometry x="1077.5" y="-260" width="120" height="40" as="geometry" />
        </mxCell>
        <mxCell id="l9l8OA2wuGnE-w_3Maxh-32" value="" style="ellipse;html=1;shape=endState;fillColor=#000000;strokeColor=#ff0000;" parent="1" vertex="1">
          <mxGeometry x="991" y="-255" width="30" height="30" as="geometry" />
        </mxCell>
        <mxCell id="RIwG-hZPtqWvE6BzHgEX-3" style="edgeStyle=orthogonalEdgeStyle;rounded=0;orthogonalLoop=1;jettySize=auto;html=1;exitX=1;exitY=0.5;exitDx=0;exitDy=0;entryX=0;entryY=0.5;entryDx=0;entryDy=0;" parent="1" source="qMRYF5KEjTczxaaKGpgz-7" target="qMRYF5KEjTczxaaKGpgz-18" edge="1">
          <mxGeometry relative="1" as="geometry">
            <mxPoint x="403" y="-890" as="sourcePoint" />
            <mxPoint x="443" y="-929" as="targetPoint" />
          </mxGeometry>
        </mxCell>
        <mxCell id="RIwG-hZPtqWvE6BzHgEX-4" value="" style="edgeStyle=orthogonalEdgeStyle;rounded=0;orthogonalLoop=1;jettySize=auto;html=1;exitX=1;exitY=0.5;exitDx=0;exitDy=0;entryX=0;entryY=0.5;entryDx=0;entryDy=0;" parent="1" source="l9l8OA2wuGnE-w_3Maxh-19" target="qMRYF5KEjTczxaaKGpgz-63" edge="1">
          <mxGeometry relative="1" as="geometry">
            <mxPoint x="330" y="-750" as="sourcePoint" />
            <mxPoint x="373" y="-750" as="targetPoint" />
          </mxGeometry>
        </mxCell>
        <mxCell id="vOy61LkyThJas-C-DZS7-3" value="" style="edgeStyle=orthogonalEdgeStyle;rounded=0;orthogonalLoop=1;jettySize=auto;html=1;entryX=1;entryY=0.5;entryDx=0;entryDy=0;" parent="1" source="qMRYF5KEjTczxaaKGpgz-23" target="vOy61LkyThJas-C-DZS7-2" edge="1">
          <mxGeometry relative="1" as="geometry">
            <Array as="points">
              <mxPoint x="960" y="-850" />
            </Array>
            <mxPoint x="960" y="-906" as="sourcePoint" />
            <mxPoint x="500" y="-909" as="targetPoint" />
          </mxGeometry>
        </mxCell>
        <mxCell id="vOy61LkyThJas-C-DZS7-4" value="No" style="edgeLabel;html=1;align=center;verticalAlign=middle;resizable=0;points=[];" parent="vOy61LkyThJas-C-DZS7-3" vertex="1" connectable="0">
          <mxGeometry x="-0.0373" y="3" relative="1" as="geometry">
            <mxPoint x="214" y="-58" as="offset" />
          </mxGeometry>
        </mxCell>
        <mxCell id="vOy61LkyThJas-C-DZS7-2" value="Wait 120 sec" style="rounded=1;whiteSpace=wrap;html=1;arcSize=40;fontColor=#000000;fillColor=#ffffc0;strokeColor=default;" parent="1" vertex="1">
          <mxGeometry x="840" y="-870" width="83" height="40" as="geometry" />
        </mxCell>
        <mxCell id="vOy61LkyThJas-C-DZS7-5" value="" style="edgeStyle=orthogonalEdgeStyle;rounded=0;orthogonalLoop=1;jettySize=auto;html=1;entryX=0.5;entryY=1;entryDx=0;entryDy=0;exitX=0;exitY=0.5;exitDx=0;exitDy=0;" parent="1" source="vOy61LkyThJas-C-DZS7-2" target="qMRYF5KEjTczxaaKGpgz-18" edge="1">
          <mxGeometry relative="1" as="geometry">
            <Array as="points">
              <mxPoint x="500" y="-850" />
            </Array>
            <mxPoint x="970" y="-896" as="sourcePoint" />
            <mxPoint x="933" y="-840" as="targetPoint" />
          </mxGeometry>
        </mxCell>
        <mxCell id="vOy61LkyThJas-C-DZS7-6" value="No" style="edgeLabel;html=1;align=center;verticalAlign=middle;resizable=0;points=[];" parent="vOy61LkyThJas-C-DZS7-5" vertex="1" connectable="0">
          <mxGeometry x="-0.0373" y="3" relative="1" as="geometry">
            <mxPoint x="322" y="-33" as="offset" />
          </mxGeometry>
        </mxCell>
        <mxCell id="S6EXefoxJFscq843MgCL-2" value="" style="shape=image;html=1;verticalAlign=top;verticalLabelPosition=bottom;labelBackgroundColor=#ffffff;imageAspect=0;aspect=fixed;image=https://cdn3.iconfinder.com/data/icons/arrows-set-12/512/history-128.png" parent="1" vertex="1">
          <mxGeometry x="956" y="-664" width="44" height="44" as="geometry" />
        </mxCell>
        <mxCell id="S6EXefoxJFscq843MgCL-6" value="" style="edgeStyle=orthogonalEdgeStyle;rounded=0;orthogonalLoop=1;jettySize=auto;html=1;entryX=0.5;entryY=0;entryDx=0;entryDy=0;exitX=0.5;exitY=1;exitDx=0;exitDy=0;" parent="1" source="S6EXefoxJFscq843MgCL-2" target="qMRYF5KEjTczxaaKGpgz-51" edge="1">
          <mxGeometry relative="1" as="geometry">
            <mxPoint x="438" y="-750" as="sourcePoint" />
            <mxPoint x="502" y="-750" as="targetPoint" />
            <Array as="points">
              <mxPoint x="978" y="-310" />
              <mxPoint x="131" y="-310" />
            </Array>
          </mxGeometry>
        </mxCell>
        <mxCell id="S6EXefoxJFscq843MgCL-12" value="" style="rounded=0;whiteSpace=wrap;html=1;" parent="1" vertex="1">
          <mxGeometry x="410" y="-700" width="217" height="80" as="geometry" />
        </mxCell>
        <mxCell id="S6EXefoxJFscq843MgCL-14" value="" style="edgeStyle=orthogonalEdgeStyle;rounded=0;orthogonalLoop=1;jettySize=auto;html=1;exitX=0.5;exitY=1;exitDx=0;exitDy=0;entryX=0.5;entryY=0;entryDx=0;entryDy=0;" parent="1" source="l9l8OA2wuGnE-w_3Maxh-4" target="S6EXefoxJFscq843MgCL-15" edge="1">
          <mxGeometry relative="1" as="geometry">
            <mxPoint x="438" y="-750" as="sourcePoint" />
            <mxPoint x="502" y="-750" as="targetPoint" />
          </mxGeometry>
        </mxCell>
        <mxCell id="S6EXefoxJFscq843MgCL-15" value="Policy Action" style="rounded=1;whiteSpace=wrap;html=1;arcSize=40;fontColor=#000000;fillColor=#ffffc0;strokeColor=default;" parent="1" vertex="1">
          <mxGeometry x="492" y="-678" width="120" height="40" as="geometry" />
        </mxCell>
        <mxCell id="S6EXefoxJFscq843MgCL-16" value="Report Parsing" style="rounded=1;whiteSpace=wrap;html=1;arcSize=40;fontColor=#000000;fillColor=#ffffc0;strokeColor=default;" parent="1" vertex="1">
          <mxGeometry x="710" y="-113" width="120" height="40" as="geometry" />
        </mxCell>
        <mxCell id="S6EXefoxJFscq843MgCL-17" value="" style="edgeStyle=orthogonalEdgeStyle;rounded=0;orthogonalLoop=1;jettySize=auto;html=1;exitX=1;exitY=0.5;exitDx=0;exitDy=0;entryX=0;entryY=0.5;entryDx=0;entryDy=0;" parent="1" source="S6EXefoxJFscq843MgCL-16" target="qMRYF5KEjTczxaaKGpgz-59" edge="1">
          <mxGeometry relative="1" as="geometry">
            <mxPoint x="1020" y="-83" as="sourcePoint" />
            <mxPoint x="1100" y="-83" as="targetPoint" />
          </mxGeometry>
        </mxCell>
        <mxCell id="FuL2n0LAdGJjh-_1gmEe-1" value="&lt;font style=&quot;font-size: 14px;&quot;&gt;(1)&lt;/font&gt;" style="text;html=1;align=center;verticalAlign=middle;resizable=0;points=[];autosize=1;strokeColor=none;fillColor=none;" parent="1" vertex="1">
          <mxGeometry x="158" y="-908" width="40" height="30" as="geometry" />
        </mxCell>
        <mxCell id="FuL2n0LAdGJjh-_1gmEe-2" value="&lt;font style=&quot;font-size: 14px;&quot;&gt;(2)&lt;/font&gt;" style="text;html=1;align=center;verticalAlign=middle;resizable=0;points=[];autosize=1;strokeColor=none;fillColor=none;" parent="1" vertex="1">
          <mxGeometry x="453" y="-907" width="40" height="30" as="geometry" />
        </mxCell>
        <mxCell id="FuL2n0LAdGJjh-_1gmEe-3" value="&lt;font style=&quot;font-size: 14px;&quot;&gt;(3)&lt;/font&gt;" style="text;html=1;align=center;verticalAlign=middle;resizable=0;points=[];autosize=1;strokeColor=none;fillColor=none;" parent="1" vertex="1">
          <mxGeometry x="635" y="-430" width="40" height="30" as="geometry" />
        </mxCell>
        <mxCell id="FuL2n0LAdGJjh-_1gmEe-4" value="&lt;font style=&quot;font-size: 14px;&quot;&gt;(4)&lt;/font&gt;" style="text;html=1;align=center;verticalAlign=middle;resizable=0;points=[];autosize=1;strokeColor=none;fillColor=none;" parent="1" vertex="1">
          <mxGeometry x="863" y="-827" width="40" height="30" as="geometry" />
        </mxCell>
        <mxCell id="FuL2n0LAdGJjh-_1gmEe-5" value="&lt;font style=&quot;font-size: 14px;&quot;&gt;(5)&lt;/font&gt;" style="text;html=1;align=center;verticalAlign=middle;resizable=0;points=[];autosize=1;strokeColor=none;fillColor=none;" parent="1" vertex="1">
          <mxGeometry x="1081" y="-909" width="40" height="30" as="geometry" />
        </mxCell>
        <mxCell id="FuL2n0LAdGJjh-_1gmEe-6" value="&lt;font style=&quot;font-size: 14px;&quot;&gt;(6)&lt;/font&gt;" style="text;html=1;align=center;verticalAlign=middle;resizable=0;points=[];autosize=1;strokeColor=none;fillColor=none;" parent="1" vertex="1">
          <mxGeometry x="1221" y="-909" width="40" height="30" as="geometry" />
        </mxCell>
        <mxCell id="FuL2n0LAdGJjh-_1gmEe-7" value="&lt;font style=&quot;font-size: 14px;&quot;&gt;(7)&lt;/font&gt;" style="text;html=1;align=center;verticalAlign=middle;resizable=0;points=[];autosize=1;strokeColor=none;fillColor=none;" parent="1" vertex="1">
          <mxGeometry x="1360" y="-909" width="40" height="30" as="geometry" />
        </mxCell>
        <mxCell id="FuL2n0LAdGJjh-_1gmEe-8" value="&lt;font style=&quot;font-size: 14px;&quot;&gt;(8)&lt;/font&gt;" style="text;html=1;align=center;verticalAlign=middle;resizable=0;points=[];autosize=1;strokeColor=none;fillColor=none;" parent="1" vertex="1">
          <mxGeometry x="1500" y="-909" width="40" height="30" as="geometry" />
        </mxCell>
        <mxCell id="FuL2n0LAdGJjh-_1gmEe-9" value="&lt;font style=&quot;font-size: 14px;&quot;&gt;(9)&lt;/font&gt;" style="text;html=1;align=center;verticalAlign=middle;resizable=0;points=[];autosize=1;strokeColor=none;fillColor=none;" parent="1" vertex="1">
          <mxGeometry x="510" y="-740" width="40" height="30" as="geometry" />
        </mxCell>
        <mxCell id="FuL2n0LAdGJjh-_1gmEe-10" value="&lt;font style=&quot;font-size: 14px;&quot;&gt;(10)&lt;/font&gt;" style="text;html=1;align=center;verticalAlign=middle;resizable=0;points=[];autosize=1;strokeColor=none;fillColor=none;" parent="1" vertex="1">
          <mxGeometry x="715" y="-740" width="50" height="30" as="geometry" />
        </mxCell>
        <mxCell id="FuL2n0LAdGJjh-_1gmEe-11" value="&lt;font style=&quot;font-size: 14px;&quot;&gt;(11)&lt;/font&gt;" style="text;html=1;align=center;verticalAlign=middle;resizable=0;points=[];autosize=1;strokeColor=none;fillColor=none;" parent="1" vertex="1">
          <mxGeometry x="1112.5" y="-790" width="50" height="30" as="geometry" />
        </mxCell>
        <mxCell id="FuL2n0LAdGJjh-_1gmEe-12" value="&lt;font style=&quot;font-size: 14px;&quot;&gt;(12)&lt;/font&gt;" style="text;html=1;align=center;verticalAlign=middle;resizable=0;points=[];autosize=1;strokeColor=none;fillColor=none;" parent="1" vertex="1">
          <mxGeometry x="903" y="-657" width="50" height="30" as="geometry" />
        </mxCell>
        <mxCell id="PM9e2xJmiu1iSxLd-vJv-1" value="Mitigation Measure 1" style="text;html=1;align=center;verticalAlign=middle;whiteSpace=wrap;rounded=0;strokeColor=default;fillColor=default;" vertex="1" parent="1">
          <mxGeometry x="1046" y="-878" width="74" height="42" as="geometry" />
        </mxCell>
        <mxCell id="PM9e2xJmiu1iSxLd-vJv-2" value="Mitigation Measure 2" style="text;html=1;align=center;verticalAlign=middle;whiteSpace=wrap;rounded=0;strokeColor=default;fillColor=default;" vertex="1" parent="1">
          <mxGeometry x="410" y="-700" width="74" height="42" as="geometry" />
        </mxCell>
      </root>
    </mxGraphModel>
  </diagram>
</mxfile>
